# xmcd
#
# Track frame offsets: 
#        150
#        14515
#        27203
#        40363
#        53055
#        66985
#        79573
#        90615
#        99420
#        112200
#        124710
#        137830
#        151580
#        164568
#
# Disc length: 2357 seconds
#
# Revision: 1
# Processed by: cddbd v1.5.2PL0 Copyright (c) Steve Scherf et al.
# Submitted via: ExactAudioCopyFreeDBPlugin 1.0
#
DISCID=b409330e
DTITLE=Various Artist - Voice of the Blues - Bottleneck Guitar Masterpieces
DYEAR=1992
DGENRE=Blues
TTITLE0=Barbecue Bob - Goin' Up the Country
TTITLE1=The Georgia Browns - Decatur Street 81
TTITLE2=Rambling Thomas - Ground Hog Blues
TTITLE3=Tampa Kid - Keep on Trying
TTITLE4=Georgia Cotton Pickers - She's Coming Back Some Cold Rainy Day
TTITLE5=Sam Butler - Jefferson County Blues
TTITLE6=Ocsar "Buddy" Woods - Come on Over to My House Baby
TTITLE7=Blind Willie Davis - When the Saints Go Marching In
TTITLE8=Irene Scruggs - The Voice of the Blues
TTITLE9=Jimmie Davis - She's a Hum Dum Dinger from Dingersville
TTITLE10=The Too Bad Boys - Corrine Corrina Blues
TTITLE11=Roy Smeck - Laughing Rag
TTITLE12=The Hokum Boys - Selling That Stuff
TTITLE13=Sister O. M. Terrell - I Want You To Lead Me On
EXTD=
EXTT0=
EXTT1=
EXTT2=
EXTT3=
EXTT4=
EXTT5=
EXTT6=
EXTT7=
EXTT8=
EXTT9=
EXTT10=
EXTT11=
EXTT12=
EXTT13=
PLAYORDER=
